<?xml version="1.0" encoding="utf-8"?>
<!-- Generator: Adobe Illustrator 15.0.0, SVG Export Plug-In . SVG Version: 6.00 Build 0)  -->
<!DOCTYPE svg PUBLIC "-//W3C//DTD SVG 1.1//EN" "http://www.w3.org/Graphics/SVG/1.1/DTD/svg11.dtd">
<svg version="1.1" id="Layer_1" xmlns="http://www.w3.org/2000/svg" xmlns:xlink="http://www.w3.org/1999/xlink" x="0px" y="0px"
	 width="424px" height="424px" viewBox="0 0 424 424" enable-background="new 0 0 424 424" xml:space="preserve">
<path fill="#FFFFFF" d="M167.289,272.133c-1.602,0-3.215-0.551-4.531-1.672l-45.297-38.57c-1.563-1.332-2.461-3.277-2.461-5.332
	c0-2.051,0.902-3.996,2.461-5.328l45.297-38.57c2.941-2.508,7.359-2.152,9.867,0.789c2.504,2.945,2.152,7.363-0.793,9.867
	l-39.035,33.242l39.035,33.242c2.945,2.508,3.297,6.926,0.793,9.867C171.238,271.297,169.27,272.133,167.289,272.133z"/>
<path fill="#FFFFFF" d="M256.711,272.133c-1.98,0-3.949-0.836-5.332-2.465c-2.508-2.941-2.152-7.359,0.789-9.867l39.035-33.242
	l-39.035-33.242c-2.941-2.504-3.297-6.922-0.789-9.867c2.504-2.941,6.926-3.297,9.863-0.789l45.297,38.57
	c1.563,1.332,2.461,3.277,2.461,5.328c0,2.055-0.898,4-2.461,5.332l-45.297,38.57C259.926,271.582,258.313,272.133,256.711,272.133z
	"/>
<path fill="#FFFFFF" d="M195.965,301.063c-0.48,0-0.965-0.051-1.453-0.152c-3.781-0.797-6.203-4.512-5.406-8.293l28.23-134.035
	c0.797-3.781,4.508-6.203,8.293-5.406c3.781,0.797,6.203,4.508,5.406,8.293l-28.23,134.035
	C202.109,298.801,199.203,301.063,195.965,301.063z"/>
<path fill="#FFFFFF" d="M377,374.086H47c-25.914,0-47-21.082-47-47V47C0,21.086,21.086,0,47,0h330c25.914,0,47,21.086,47,47v280.086
	C424,353.004,402.914,374.086,377,374.086z M47,14c-18.195,0-33,14.805-33,33v280.086c0,18.195,14.805,33,33,33h330
	c18.195,0,33-14.805,33-33V47c0-18.195-14.805-33-33-33H47z"/>
<path fill="#FFFFFF" d="M417,112.09H7c-3.867,0-7-3.133-7-7c0-3.863,3.133-7,7-7h410c3.867,0,7,3.137,7,7
	C424,108.957,420.867,112.09,417,112.09z"/>
<path fill="#FFFFFF" d="M119.602,78.594c-12.211,0-22.152-9.941-22.152-22.152c0-12.215,9.941-22.152,22.152-22.152
	c12.215,0,22.152,9.938,22.152,22.152C141.754,68.652,131.816,78.594,119.602,78.594z M119.602,48.289
	c-4.492,0-8.152,3.656-8.152,8.152s3.66,8.152,8.152,8.152c4.496,0,8.152-3.656,8.152-8.152S124.098,48.289,119.602,48.289z"/>
<path fill="#FFFFFF" d="M51.539,78.379c-12.215,0-22.152-9.938-22.152-22.152s9.938-22.152,22.152-22.152
	s22.152,9.938,22.152,22.152S63.754,78.379,51.539,78.379z M51.539,48.074c-4.492,0-8.152,3.66-8.152,8.152
	c0,4.496,3.66,8.152,8.152,8.152c4.496,0,8.152-3.656,8.152-8.152C59.691,51.734,56.035,48.074,51.539,48.074z"/>
<path fill="#FFFFFF" d="M187.664,78.805c-12.211,0-22.148-9.938-22.148-22.152c0-12.211,9.938-22.148,22.148-22.148
	c12.215,0,22.152,9.938,22.152,22.148C209.816,68.867,199.879,78.805,187.664,78.805z M187.664,48.5
	c-4.492,0-8.148,3.656-8.148,8.152s3.656,8.152,8.148,8.152c4.496,0,8.152-3.656,8.152-8.152S192.16,48.5,187.664,48.5z"/>
</svg>
